/* XPM */
static char * const_xpm[] = {
/* width height ncolors chars_per_pixel */
"446 42 10 1",
/* colors */
" 	s None	c None",
".	c tan",
"X	c grey",
"o	c slate grey",
"O	c gold",
"+	c peru",
"@	c dark slate grey",
"#	c sienna",
"$	c black",
"%	c orange",
/* pixels */
" .............................Xoooooooooooooooooooooooooooo.............................XooooooooooooooooooooooooooooX...........................XooooooooooooooooooooooooooooX.............................Xoooooooooooooooooooooooooooo.............................XooooooooooooooooooooooooooooX...........................Xoooooooooooooooooooooooooooo.............................XooooooooooooooooooooooooooooX...........................Xooooo      ",
" .OOOOOOOOOOOOOOOOOOOOOOOOOO++@@@@@@@@@@@@@@@@@@@@@@@@@@@@+OOOOOOOOOOOOOOOOOOOOOOOOOOO++@@@@@@@@@@@@@@@@@@@@@@@@@@@@++OOOOOOOOOOOOOOOOOOOOOOOOO++@@@@@@@@@@@@@@@@@@@@@@@@@@@@+OOOOOOOOOOOOOOOOOOOOOOOOOOOO++@@@@@@@@@@@@@@@@@@@@@@@@@@@@+OOOOOOOOOOOOOOOOOOOOOOOOOOO++@@@@@@@@@@@@@@@@@@@@@@@@@@@@++OOOOOOOOOOOOOOOOOOOOOOOOO++@@@@@@@@@@@@@@@@@@@@@@@@@@@@+OOOOOOOOOOOOOOOOOOOOOOOOOOO++@@@@@@@@@@@@@@@@@@@@@@@@@@@@++OOOOOOOOOOOOOOOOOOOOOOOOO++@@@@@o      ",
" .OOOOOOOOOOOOOOOOOOOOOOOOO++@@@@@@@@@@@@@@@@@@@@@@@@@@@@++OOOOOOOOOOOOOOOOOOOOOOOOOOO++@@@@@@@+++++#@@+++#@@@@@@+++OOOOOOOOOOOOOOOOOOOOOOOOOO++@#++++++#@@@@@@@@@@@@@@@@@#++OOOOOOOOOOOOOOOOOOOOOOOOOOOO+++++++#@@+++#@@@@@@@@#+++++#@++OOOOOOOOOOOOOOOOOOOOOOOOOOO++#@@@@@@@@@++++#@#+++#@@@@@@++OOOOOOOOOOOOOOOOOOOOOOOOOO+@@@@@++++#@@@@@@@@++++++@@@@++OOOOOOOOOOOOOOOOOOOOOOOOOO++@@@@@@@@@@@@@@@@@@@@@@@@@@@@++OOOOOOOOOOOOOOOOOOOOOOOOO++@@@@@@oXXXX  ",
" .OOOOOOOOOOOOOOOOOOOOOOOO++@@@@@@@@@@@@@@@@@@@@@@@@@@@@++OOOOOOOOOOOOOOOOOOOO++++$O++++@@@@@@@++++++$@+++#$@@@@@+++++++++OOOOOOOOO++++++++#+++@@+++++++++#@@@@@@@@@@@@@@#++++++++OOOOOOOOOO+++++++OOOOO++@++++++$@+++#$@@@@@@++++++++++OOOOOOO+++++++++##OOOOO+++++++++@@@@@@@@++++#$+++++$@@@@++O++++++++OOOOOOOO++++++++++$@@@@@++++#$@@@@@@++++++++@@++OOOO++++++$OO+++#OOOOOOOOO++@@@@@@@@@@@@@@@@@@@@@@@@@@@@++OOOOOOOOOOOOOOOOOOOOOOOOO++@@@@@@@oXXXXX ",
" .OOOOOOOOOOOOOOOOOOOOOOO++@@@@@@@@@@@@@@@@@@@@@@@@@@@@++OOOOOOOOOOOOOOOOOOOOO++++$+++++$$@@@@@++++++$@+++#$@@@@@+++++++++++OOOOOOO++++++++$++@@@++++++++++@@@@@@@@@@@@@@+++++++++#OOOOOOOOO+++++++#OOO++@@++++++$@+++#$@@@@@@+++++++++#OOOOOOO+++++++++##OOOOOO+++++++++$@@@@@@++++#$+++++$@@@++OOO+++++++#OOOOOOO++++++++++$@@@@@++++#$@@@@@#++++++++##+OOOOOO+++++$OO+++$OOOOOOOO++@@@@@@@@@@@@@@@@@@@@@@@@@@@@++OOOOOOOOOOOOOOOOOOOOOOOOO++@@@@@@@@oooXXXX",
" .OOOOOOOOOOOOOOOOOOOOOO++@@@@@@@@$$$$$$$$$$$$$$$$$$$$#+OOOOOOOOOOOOOOOOOOOOOO++++$+++++$$@@$$@++++++$$+++#$$$$$#O+++++++++#OOOOOOO++++++++$#@@@@++++++++++#$$$$$$$$$$$$@+++++++++#+OOOOOOO+++++++++#O++@@@++++++$$+++#$$$$$$++++++++++#+OOOOOO+++++++++##OOOOO++++++++++$$$$$$$++++#$+++++$$$#+OOO++++++++#+OOOOOO++++++++++$@@@@@++++#$$$$$$++++++++++@OOOOOOO+++++@+O+++$OOOOOOO++@@@@@@@@$$$$$$$$$$$$$$$$$$$$#+OOOOOOOOOOOOOOOOOOOOOOOOO++@@@@@@@@$ooooXXX",
" .OOOOOOOOOOOOOOOOOOOOO++$$$$$$$$$$$$$$$$$$$$$$$$$$$$#+OOOOOOOOOOOOOOOOOOOOOOO++++$@++++$$$$$$@++++++$$+++#$$$$#+O+++#@++++@+OOOOOO++++$$$$$$$$$$+++++$+++++$$$$$$$$$$$$+++++$+++++@OOOOOOO+++@#++++$%+$$$@++++++$$+++#$$$$$$+++++$+++++#OOOOOO$$++++#$$$#OOOOO++++@#++++@$$$$$$++++#$+++++$$#+OOOO+++$+++++#OOOOOO#$+++++$$$$$$$$$++++#$$$$$$++++#@++++$OOOOOOO+++++#+O+++$OOOOOO++$$$$$$$$$$$$$$$$$$$$$$$$$$$$#+OOOOOOOOOOOOOOOOOOOOOOOOO++$$$$$$$$$$@@oooXX",
"X.OOOOOOOOOOOOOOOOOOOO++$$$$$$$$$$$$$$$$$$$$$$$$$$$$#+%%%OOOOOOOOOOOOOOOOOOOOO++++$@++++$$$$$$@++++++@$+++#$$$#+%O+++##++++##OOOOOO++++$+##$$$$$$+++++$#++++$$$$$$$$$$$#+++++$O++++$OOOOOOO+++$+++++$+$$$$@++++++@$+++#$$$$$$++++#$+++++$OOOOOO++O+++##++%OOOO+++++$$++++#$$$$$$++++#$+++++$#+%%%O++++$O++++$OOOOOO+++++++$$$$$$$$$++++#$$$$$@++++$$++++@+OOOOOO+++++##O+++$OOOOO++$$$$$$$$$$$$$$$$$$$$$$$$$$$$#+%%%OOOOOOOOOOOOOOOOOOOOOO+#$$$$$$$$$$$@@@ooXX",
"X.OOOOOOOOOOOOOOOOOOO++$$$$$$$$$$$$$$$$$$$$$$$$$$$$#+%%%%%%OOOOOOOOOOOOOOOOOOO++++$@++++$$$$$$@++++++#$+++#$$#+%%O+++##O++++#OOOOOO++++$+#$$$$$$$+++++$#++++$$$$$$$$$$#+O++++$O++++$OOOOOO++++$OO+++$$$$$$@++++++#$+++#$$$$$$++++##O++++$OOOOOOOOO+++##OOOOOO++++++$$++++#$$$$$$++++#$+++++$+%%%%O++++$O++++$OOOOOOOOO++++$$$$$$$$$++++#$$$$$@++++$$++++##%%OOOO++++++#O+++$OOOO++$$$$$$$$$$$$$$$$$$$$$$$$$$$$#+%%%%%%OOOOOOOOOOOOOOOOOOO+#$$$$$$$$$$$$@@@ooXX",
"X.OOOOOOOOOOOOOOOOOO++$$$$$$$$$$$$$$$$$$$$$$$$$$$$#+%%%%%%OOOOOOOOOOOOOOOOOOOO++++$@++++$$$$$$@++++++#$+++#$#+%%%O+++##O++++$OOOOOO++++$#$$$$$$$$+++++$#++++$$$$$$$$$#+%O++++$O++++$OOOOOO++++$OO+++$$$$$$@++++++#$+++#$$$$$$++++##O++++$OOOOOOOOO+++##OOOOO++@++++$$++++#$$$$$$++++#$+++++$%%%%%O++++$O++++$OOOOOOOO+++++$$$$$$$$$++++#$$$$$@++++$@O+++##%OOOOO++++++$O+++$OOO++$$$$$$$$$$$$$$$$$$$$$$$$$$$$#+%%%%%%OOOOOOOOOOOOOOOOOOO+#$$$$$$$$$$$$$@$@ooXX",
"X.OOOOOOOOOOOOOOOOO%+$$$$$$$$$$$$$$$$$$$$$$$$$$$$#+%%%%%%%OOOOOOOOOOOOOOOOOOO%++++$@++++$$$$$$@+++++++$+++#@+%%%%O+++##O++++$OOOOOO++++$$$$$$$$$$+++++$#++++$$$$$$$$#+%%O++++$O++++$OOOOOO++++$OO+++$$$$$$@+++++++$+++#$$$$$$+++++#O++++$OOOOOOOOO+++##OOOO%+$@++++$$++++@$$$$$$++++#$+++++$%%%%%O++++$O++++$OOOOOOO%+++++$$$$$$$$$++++#$$$$$@++++$#O+++##%OOOOO++++++$O+++$OO%+$$$$$$$$$$$$$$$$$$$$$$$$$$$$#+%%%%%%%OOOOOOOOOOOOOOOOOO%#$$$$$$$$$$$$$$@$@@oXX",
"X.OOOOOOOOOOOOOOOO%+$$$$$$$$$$$$$$$$$$$$$$$$$$$$#+%%%%%%%OOOOOOOOOOOOOOOOOOO%+++++$@++++$$$$$$@+++#+++$+++##%%%%%O+++##O++++$OOOOOO++++$$$$$$$$$$+++++$#+++#$$$$$$$#+%%%O++++$O++++$OOOOOO++++$O++++@$$$$$@+++#+++$+++#$$$$$$#+++++++++#$OOOOOOOOO+++##OOO%+$$@++++$$++++$$$$$$$++++#$+++++$%%%%%O++++$O++++$OOOOOO%++++++$$$$$$$$$++++#$$$$$@++++$#O+++##OOOOOO++#+++$O+++$O%+$$$$$$$$$$$$$$$$$$$$$$$$$$$$#+%%%%%%%OOOOOOOOOOOOOOOOOO%#$$$$$$$$$$$$$$$@$@@oXX",
"X.OOOOOOOOOOOOOOO%+$$$$$$$$$$$$$$$$$$$$$$$$$$$$#+%%%%%%%OOOOOOOOOOOOOOOOOOO%+#++++$@++++$$$$$$@+++#+++$+++##%%%%%O+++##O++++$OOOOOO++++++++$$$$$$+++++@++++$$$$$$$#+%%%%O++++$O#$$$$OOOOOO++++$%++++$$$$$$@+++#+++$+++#$$$$$$++++++#@$$$#OOOOOOOOO+++##OO%+$$$@++++@#++++$$$$$$$++++#$+++++$%%%%OO++++$O#$$$$OOOOO%+$+++++$$$$$$$$$++++#$$$$$@++++$+O+++##OOOOOO++#+++$++++$%+$$$$$$$$$$$$$$$$$$$$$$$$$$$$#+%%%%%%%OOOOOOOOOOOOOOOOOO%#$$$$$$$$$$$$$$$$@$@@oXX",
"X.OOOOOOOOOOOOOO%+$$$$$$$$$$$$$$$$$$$$$$$$$$$$#+%%%%%%%OOOOOOOOOOOOOOOOOOO%+$#++++$@++++$$$$$$@+++$+++$+++##%%%%%O+++##O++++$OOOOOO++++++++$$$$$$+++++++++#$$$$$$#+%%%%%O++++$OOOOOOOOOOOO++++$+++++$$$$$$@+++$+++$+++#$$$$$#+++++++#OOOOOOOOOOOOO+++##O%+$$$$@+++++++++$$$$$$$$++++#$+++++$%%%OOO++++$OOOOOOOOOO%+$$+++++$$$$$$$$$++++#$$$$$@++++$+O+++##OOOOOO++#+++@++++$+$$$$$$$$$$$$$$$$$$$$$$$$$$$$#+%%%%%%%OOOOOOOOOOOOOOOOOO%#$$$$$$$$$$$$$$$$$@$@@oXX",
"X.OOOOOOOOOOOOO%+$$$$$$$$$$$$$$$$$$$$$$$$$$$$#+%%%%%%%OOOOOOOOOOOOOOOOOOO%+$$#++++$@++++$$$$$$@+++$+++$+++##O%%%OO+++##O++++$OOOOO+++++++++$$$$$$++++++++#$$$$$$#+%%%%%%O++++$OOOOOOOOOOOO++++$@++++$$$$$$@+++$+++$+++#$$$$#+%+++++++#OOOOOOOOOOOO+++##%+$$$$$@++++++++$$$$$$$$$++++#@+++++$%%OOOO++++$OOOOOOOOO%+$$$+++++$$$$$$$$$++++#$$$$$@++++$+O+++##OOOOOO++#+++#++++$$$$$$$$$$$$$$$$$$$$$$$$$$$$$#+%%%%%%%OOOOOOOOOOOOOOOOOO%#$$$$$$$$$$$$$$$$$$@$@@oXX",
"X.OOOOOOOOOOOO%+$$$$$$$$$$$$$$$$$$$$$$$$$$$$#+%%%%%%%OOOOOOOOOOOOOOOOOOO%+$$$#++++$@++++@$$$$$@+++$+++@+++##%%%OOO+++##O++++$OOOO%+++++++++$$$$$$++++++++++$$$$#+%%%%%%%O++++$OOOOOOOOOOOO++++$@++++$$$$$$@+++$+++@+++#$$$#+%%%++++++++OOOOOOOOOOO+++##+$$$$$$@+++++++++@$$$$$$$++++##O++++$%OOOOO++++$OOOOOOOO%+$$$$+++++$$$$$$$$$++++#$$$$$#++++$+O+++##OOOOOO++#+++#++++$$$$$$$$$$$$$$$$$$$$$$$$$$$$#+%%%%%%%OOOOOOOOOOOOOOOOOO%#$$$$$$$$$$$$$$$$$$$@$@@oXX",
"X.OOOOOOOOOOO%+$$$$$$$$$$$$$$$$$$$$$$$$$$$$#+%%%%%%%OOOOOOOOOOOOOOOOOOO%+$$$$#++++$@++++$$$$$$@+++$#++#+++##%%OOOO+++##O++++$OOO%#+++++$$$$$$$$$$++++++++++#$$#+%%%%%%%OO++++$OOOOOOOOOOOO++++$@++++$$$$$$@+++$#++#+++#$$#+%%%%%++++++#OOOOOOOOOOO+++#@$$$$$$$@++++++++++$$$$$$$++++##O++++$OOOOOO++++$OOOOOOO%+$$$$$+++++$$$$$$$$$++++#$$$$#+O+++$+O+++##OOOOOO++#++++++++$$$$$$$$$$$$$$$$$$$$$$$$$$$#+%%%%%%%OOOOOOOOOOOOOOOOOO%#$$$$$$$$$$$$$$$$$$$$@$@@oXX",
"X.OOOOOOOOOO%+$$$$$$$$$$$$$$$$$$$$$$$$$$$$#+%%%%%%%OOOOOOOOOOOOOOOOOOO%+$$$$$#++++$@++++$$$$$$@+++$#++#+++##OOOOOO+++##O++++$OO%#$+++++$$$$$$$$$$+++++$+++++$#+%%%%%%%OOO++++$OOOOOOOOOOOO++++$@++++$$$$$$@+++$#++#+++#$#+%%%%%%+++++++#OOOOOOOOOO+++#$$$$$$$$@++++$@++++@$$$$$$++++##O++++$OOOOOO++++$OOOOOO%+$$$$$$+++++$$$$$$$$$++++#$$$#+O++++$+O+++##OOOOOO++##+++++++$$$$$$$$$$$$$$$$$$$$$$$$$$#+%%%%%%%OOOOOOOOOOOOOOOOOO%#$$$$$$$$$$$$$$$$$$$$$@$@@oXX",
"X.OOOOOOOOO%+$$$$$$$$$$$$$$$$$$$$$$$$$$$$#+%%%%%%%OOOOOOOOOOOOOOOOOOO%+$$$$$$#++++$@++++$$$$$$@+++$#++++++##OOOOOO+++##O++++$O%#$$+++++$$$$$$$$$$+++++$#++++$+%%%%%%%OOOO++++$OOOOOOOOOOO%++++$@++++$$$$$$@+++$@++++++#@+%%%%OOOO++++++@OOOOOOOOOO+++#$$$$$$$$@++++$$++++#$$$$$$++++##O++++$OOOOOO++++$OOOOO%+$$$$$$$+++++$$$$$$$$$++++#$$#+%O++++$+O+++##OOOOOO++##O++++++$$$$$$$$$$$$$$$$$$$$$$$$$#+%%%%%%%OOOOOOOOOOOOOOOOOO%#$$$$$$$$$$$$$$$$$$$$$$@$@@oXX",
"X.OOOOOOOO%+$$$$$$$$$$$$$$$$$$$$$$$$$$$$#+%%%%%%%OOOOOOOOOOOOOOOOOOO%+$$$$$$$#++++$@++++@$$$$$@+++$+++++++##OOOOOO+++##O++++$%#$$$+++++$$$$$$$$$$+++++$#++++$%%%%%%%OOOOO++++$OO+++#OOOO%+++++$@++++$$$$$$@+++$@++++++##%%%%%O+++++++++##OOOOOOOOO+++#$$$$$$$$@++++@$++++#$$$$$$++++##O++++$OOOOOO++++$OO+++@$$$$$$$$+++++$$$$$$$$$++++#$#+%%+O+++$+O+++##OOOOOO++##O++++++$$$$$$$$$$$$$$$$$$$$$$$$#+%%%%%%%OOOOOOOOOOOOOOOOOO%#$$$$$$$$$$$$$$$$$$$$$$$@$@@oXX",
"X.OOOOOOO%+$$$$$$$$$$$$$$$$$$$$$$$$$$$$#+%%%%%%%OOOOOOOOOOOOOOOOOOO%+$$$$$$$$#++++$@++++$$$$$$@+++$+++++++##OOOOOO+++##O++++$#$$$$+++++$$$$$$$$$$+++++$#++++$%%%%%%OOOOOO++++$O++++$OOO%+#++++$@++++$$$$$$@+++$$++++++##%%%%%O+++##+++++#OOOOOOOOO+++#$$$$$$$$@++++$$++++#$$$$$#O+++##O++++$OOOOOO++++$O++++$$$$$$$$$+++++$$$$$$$$$++++#@+%%%O++++$+O+++##OOOOOO++##O++++++$$$$$$$$$$$$$$$$$$$$$$$#+%%%%%%%OOOOOOOOOOOOOOOOOO%#$$$$$$$$$$$$$$$$$$$$$$$$@$@@oXX",
"X.OOOOOO++$$$$$$$$$$$$$$$$$$$$$$$$$$$$#+%%%%%%%OOOOOOOOOOOOOOOOOOO%+$$$$$$$$$#++++$@++++$$$$$$@+++$+O+++++##OOOOOO+++##O++++$$$$$$+++++$$$$$$$$$$+++++$#++++$%%%%%OOOOOOO++++$O++++$OO%+$#++++$@++++$$$$$$@+++$$++++++##%%%%%O+++##+++++$OOOOOOO%O+++#$$$$$$$$@++++$$++++#$$$$#+O+++##O++++$OOOOOO++++$O++++$$$$$$$$$+++++$$$$$$$$$++++##%%%%OO+++$+O+++##OOOOOO++##+++++++$$$$$$$$$$$$$$$$$$$$$$#+%%%%%%%OOOOOOOOOOOOOOOOOO%#$$$$$$$$$$$$$$$$$$$$$$$$$@$@@oXX",
"X.OOOOO++$$$$$$$$$$$$$$$$$$$$$$$$$$$$#+%%%%%%%OOOOOOOOOOOOOOOOOOO%+$$$$$$$$$$#++++$@++++$$$$$$@+++$#O+++++##OOOOOO+++##O++++$$$$$$+++++$$$$$$$$$$+++++$#++++$%%%%OOOOOOOO++++$O++++$O%+$$#++++$@++++$$$$$$@+++$$++++++##O%%%OO+++##O++++$OOOOOO%+++++#$$$$$$$$@++++$$++++#$$$#+%O+++##O++++$OOOOOO++++$O++++$$$$$$$$$+++++$$$$$$$$$++++##%%%%O++++$+O+++##OOOOOO++#@#++++++$$$$$$$$$$$$$$$$$$$$$#+%%%%%%%OOOOOOOOOOOOOOOOOO%#$$$$$$$$$$$$$$$$$$$$$$$$$$@$@@oXX",
"X.OOOO++$$$$$$$$$$$$$$$$$$$$$$$$$$$$#+%%%%%%%OOOOOOOOOOOOOOOOOOO%+$$$$$$$$$$$#++++$@++++$$$$$$#+++$+O+++++##OOOOOO+++##O+++#$$$$$$+++++$$$$$$$$$$+++++$+++++$%%%OOOOOOOOO++++$O++++$%+$$$#++++$@++++@$$$$$@+++$$++++++##%%%OOO+++##O++++$OOOOO%+$++++#$$$$$$$$@++++@$++++#$$#+%%O+++##O+++#$OOOOOO++++$%++++$$$$$$$$$+++++$$$$$$$$$++++##%%%%%O+++$+O+++##OOOOOO++#$#++++++$$$$$$$$$$$$$$$$$$$$#+%%%%%%%OOOOOOOOOOOOOOOOOO%#$$$$$$$$$$$$$$$$$$$$$$$$$$$@$@@oXX",
"X.OOO%+$$$$$$$$$$$$$$$$$$$$$$$$$$$$#+%%%%%%%OOOOOOOOOOOOOOOOOOO%+$$$$$$$$$$$$@++++$#++++$$$$$#++++$+O+++++##OOOOOO+++##O+++#$$$$$$+++++$$$$$$$$$$+++++$+++++$%%OOOOOOOOOO++++$O++++$+$$$$@++++$#++++$$$$$$@+++$$#+++++##%%OOOO+++##O+++#$OOOO%+$$++++#$$$$$$$$@++++$$++++#$#+%%%O+++##O+++#@OOOOOO++++$+++++$$$$$$$$$+++++$$$$$$$$$++++##%%%%OO+++@+O+++$#OOOOOO++#$#++++++$$$$$$$$$$$$$$$$$$$#+%%%%%%%OOOOOOOOOOOOOOOOOO%#$$$$$$$$$$$$$$$$$$$$$$$$$$$$@$@@oXX",
"X.OO++$$$$$$$$$$$$$$$$$$$$$$$$$$$$#+%%%%%%%OOOOOOOOOOOOOOOOOOO%+$$$$$$$$$$$$$$++++++++++$$$$#+O+++$+O+++++##OOOOOO+++++O+++$$$$$$$+++++++++@$$$$$+++++$+++++$%OOOOOOOOOOO+++++O+++#$$$$$$$++++++++++$$$$$$@+++$$++++++##%OOOOO+++++O+++@#OOO%+$$$++++#$$$$$$$$@++++$$++++#@+%%%%O+++++O+++@#OOOOOO+++++++++#$$$$$$$$$+++++$$$$$$$$$++++##O%%OOO+++++O+++$+OOOOOO++#$@++++++$$$$$$$$$$$$$$$$$$#+%%%%%%%OOOOOOOOOOOOOOOOOO%#$$$$$$$$$$$$$$$$$$$$$$$$$$$$##$@@oXX",
"X.O++$$$$$$$$$$$$$$$$$$$$$$$$$$$$#+%%%%%%%OOOOOOOOOOOOOOOOOOO%+$$$$$$$$$$$$$$$+++++++++#$$$#+%OO++$+O+++++##OOOOOO+++++++++$$$$$$$+++++++++$$$$$$+++++$O++++$OOOOOOOOOOOO+++++++++@$$$$$$$+++++++++@$$$$$$@+++$@++++++##OOOOOO+++++++++$#OO%+$$$$++++#$$$$$$$$@++++$$++++##%%%%%%+++++++++$+OOOOOO+++++++++@$$$$$$$$$+++++$$$$$$$$#O+++##%%OOOO++++++++#$%OOOO%O++#$$++++++$$$$$$$$$$$$$$$$$#+%%%%%%%OOOOOOOOOOOOOOOOOO%#$$$$$$$$$$$$$$$$$$$$$$$$$$$$#++$@@oXX",
"X.+#@$$$$$$$$$$$$$$$$$$$$$$$$$$$#+%%%%%%%OOOOOOOOOOOOOOOOOOO+#$$$$$$$$$$$$$$$$@++++++++$$$#+%%O+++$+O+++++##OOOOOO++++++++$$$$$$$$+++++++++@$$$$$+++++$%++++$OOOOOOOOOOOO%++++++++$$$$$$$$@++++++++$$$$$$$@+++$#O+++++##OOOOOO++++++++#$%O+#$$$$$++++#$$$$$$$$@++++@$++++##%%%%%%++++++++#$%OOOOOOO++++++++$$$$$$$$$$+++++$$$$$$$#+O+++##%OOOOO++++++++$@OOOO+#+++#$$++++++$$$$$$$$$$$$$$$$#+%%%%%%%OOOOOOOOOOOOOOOOOO%#$$$$$$$$$$$$$$$$$$$$$$$$$$$$#+%+$@@oXX",
"X.@@@$$$$$$$$$$$$$$$$$$$$$$$$$$#+%%%%%%%OOOOOOOOOOOOOOOOOO%+@$$$$$$$$$$$$$$$$$$@++++++$$$#+%%%%+++$+OO++++##OOOOOO++++++#$$$$$$$$$+++++++++$$$$$$+++++$%++++@+OOOOOOOOOOOO+++++++$$$$$$$$$$#++++++$$$$$$$$@+++$+%+++++##OOOOOO%++++++#$#%+@$$$$$$++++#$$$$$$$$@++++$$#++++@%%%%%OO++++++#$#OOOOOOO%+++++++$$$$$$$$$$$+++++$$$$$$#+%O+++##OOOOOO%++++++@$+OO%+@$+++#$$++++++$$$$$$$$$$$$$$$#+%%%%%%%OOOOOOOOOOOOOOOOOO%#$$$$$$$$$$$$$$$$$$$$$$$$$$$$#+%%+$@@oXX",
"XX@@@$$$$$$$$$$$$$$$$$$$$$$$$$#+%%%%%%%OOOOOOOOOOOOOOOOOO%#@$$$$$$$$$$$$$$$$$$$$$@##@$$$#+%%%%%+$$$+OO$$$$$#OOOOOO$$$$$$$$$$$$$$$$$$$$$$$$$$$$$$$#$$$$$O%$$$$#OOOOOOOOOOOOO#@##$$$$$$$$$$$$$$@##@$$$$$$$$$$$$$$+%%$$$$$#OOOOOOO+@##@$$#%#@$$$$$$$$$$$$$$$$$$$$$$$$$$$$@$$$$O%%%OOO%@##@$$@OOOOOOO%#$$@##$$$$$$$$$$$$$$$$$$$$$$$#+%%%$$$$#OOOOOOO+@##@$$#OO%#@$$$$$$$$$$$$$$$$$$$$$$$$$$$$#+%%%%%%%OOOOOOOOOOOOOOOOOO%#$$$$$$$$$$$$$$$$$$$$$$$$$$$$#+%%%+$@ooXX",
"Xo@@@$$$$$$$$$$$$$$$$$$$$$$$$#+%%%%%%%OOOOOOOOOOOOOOOOOO%#$$$$$$$$$$$$$$$$$$$$$$$$$$$$$#+%%%%%%%OOOOOOOOOOOOOOOOOO%#$$$$$$$$$$$$$$$$$$$$$$$$$$$$#+%%%%%%%OOOOOOOOOOOOOOOOOOO+@$$$$$$$$$$$$$$$$$$$$$$$$$$$$$#+%%%%%%%OOOOOOOOOOOOO+###+%#$$$$$$$$$$$$$$$$$$$$$$$$$$$$$#+%%%O%%%OOOOOO+###+OOOOOOO%#$$$$$$$$$$$$$$$$$$$$$$$$$$$$#+%%%%%%%OOOOOOOOOOO####%OO%#$$$$$$$$$$$$$$$$$$$$$$$$$$$$$#+%%%%%%%OOOOOOOOOOOOOOOOOO%#$$$$$$$$$$$$$$$$$$$$$$$$$$$$#+%%%%+$@oo.X",
"Xo@@@$$$$$$$$$$$$$$$$$$$$$$$#+%%%%%%%OOOOOOOOOOOOOOOOOO%#$$$$$$$$$$$$$$$$$$$$$$$$$$$$$#+%%%%%%%OOOOOOOOOOOOOOOOOO%#$$$$$$$$$$$$$$$$$$$$$$$$$$$$#+%%%%%%%OOOOOOOOOOOOOOOOOOO%#$$$$$$$$$$$$$$$$$$$$$$$$$$$$$#+%%%%%%%OOOOOOOOOOOOOOOOOO%#$$$$$$$$$$$$$$$$$$$$$$$$$$$$$#+%%%%%%%OOOOOOOOOOOOOOOOOO%#$$$$$$$$$$$$$$$$$$$$$$$$$$$$#+%%%%%%%OOOOOOOOOOOOOOOOOO%#$$$$$$$$$$$$$$$$$$$$$$$$$$$$$#+%%%%%%%OOOOOOOOOOOOOOOOOO%#$$$$$$$$$$$$$$$$$$$$$$$$$$$$#+%%%%O+@@oo.X",
"Xoooo@@@@@@@@@@@@@@@@@@@@@@@#++++++++++++++++++++++++++####@@@@@@@@@@@@@@@@@@@@@@@@@@@#++++++++++++++++++++++++++####@@@@@@@@@@@@@@@@@@@@@@@@@@#+++++++++++++++++++++++++++####@@@@@@@@@@@@@@@@@@@@@@@@@@@#++++++++++++++++++++++++++####@@@@@@@@@@@@@@@@@@@@@@@@@@@#++++++++++++++++++++++++++####@@@@@@@@@@@@@@@@@@@@@@@@@@#++++++++++++++++++++++++++####@@@@@@@@@@@@@@@@@@@@@@@@@@@#++++++++++++++++++++++++++####@@@@@@@@@@@@@@@@@@@@@@@@@@#+++++++@@oo.X",
"XXXoo@@$$$$$$$$$$$$$$$$$$$$$$$$$$$$$@#######################@@$$$$$$$$$$$$$$$$$$$$$$$$$$$$$$$$@#######################@@$$$$$$$$$$$$$$$$$$$$$$$$$$$$$$$@########################@@$$$$$$$$$$$$$$$$$$$$$$$$$$$$$$$$@#######################@@$$$$$$$$$$$$$$$$$$$$$$$$$$$$$$$$@#######################@@$$$$$$$$$$$$$$$$$$$$$$$$$$$$$$$@#######################@@$$$$$$$$$$$$$$$$$$$$$$$$$$$$$$$$@#######################@@$$$$$$$$$$$$$$$$$$$$$$$$$$$$$$@@#oo.X",
" XXoo@@$$$$$$$$$$$$$$$$$$$$$$$$$$$@#########################@@$$$$$$$$$$$$$$$$$$$$$$$$$$$$$$@#########################@$$$$$$$$$$$$$$$$$$$$$$$$$$$$$$@##########################@@$$$$$$$$$$$$$$$$$$$$$$$$$$$$$$@#########################@@$$$$$$$$$$$$$$$$$$$$$$$$$$$$$$@#########################@$$$$$$$$$$$$$$$$$$$$$$$$$$$$$$@#########################@@$$$$$$$$$$$$$$$$$$$$$$$$$$$$$$@#########################@$$$$$$$$$$$$$$$$$$$$$$$$$$$$$$@@##o..X",
" XXoo@@@$$$$$$$$$$$$$$$$$$$$$$$@@@@########################@@@@$$$$$$$$$$$$$$$$$$$$$$$$$$@@@@########################@@@@$$$$$$$$$$$$$$$$$$$$$$$$$@@@@#########################@@@@$$$$$$$$$$$$$$$$$$$$$$$$$$@@@@########################@@@@$$$$$$$$$$$$$$$$$$$$$$$$$$@@@@########################@@@@$$$$$$$$$$$$$$$$$$$$$$$$$@@@@########################@@@@$$$$$$$$$$$$$$$$$$$$$$$$$$@@@@########################@@@@$$$$$$$$$$$$$$$$$$$$$$$$$@@@@###o.XX",
" XXooo@@@@@@@@@@@@@@@@@@@@@@@@@@@@##########################@@@@@@@@@@@@@@@@@@@@@@@@@@@@@@@@##########################@@@@@@@@@@@@@@@@@@@@@@@@@@@@@@@###########################@@@@@@@@@@@@@@@@@@@@@@@@@@@@@@@@##########################@@@@@@@@@@@@@@@@@@@@@@@@@@@@@@@@##########################@@@@@@@@@@@@@@@@@@@@@@@@@@@@@@@##########################@@@@@@@@@@@@@@@@@@@@@@@@@@@@@@@@##########################@@@@@@@@@@@@@@@@@@@@@@@@@@@@@@@###+o.XX",
" XXXooooo@@@@@@@@@@@@@@@@@@@@@ooooo##+++++++++++++++++++oooooo@@@@@@@@@@@@@@@@@@@@@@@@@@ooooo##+++++++++++++++++++oooooo@@@@@@@@@@@@@@@@@@@@@@@@@ooooo##++++++++++++++++++++oooooo@@@@@@@@@@@@@@@@@@@@@@@@@@ooooo##+++++++++++++++++++oooooo@@@@@@@@@@@@@@@@@@@@@@@@@@ooooo##+++++++++++++++++++oooooo@@@@@@@@@@@@@@@@@@@@@@@@@ooooo##+++++++++++++++++++oooooo@@@@@@@@@@@@@@@@@@@@@@@@@@ooooo##+++++++++++++++++++oooooo@@@@@@@@@@@@@@@@@@@@@@@@@oooooooo..XX",
" XXXXoooooooooooooooooooooooooooooo......................oooooooooooooooooooooooooooooooooooo......................ooooooooooooooooooooooooooooooooooo.......................oooooooooooooooooooooooooooooooooooo......................oooooooooooooooooooooooooooooooooooo......................ooooooooooooooooooooooooooooooooooo......................oooooooooooooooooooooooooooooooooooo......................ooooooooooooooooooooooooooooooooooo....XXX",
"  XXXXXXXXXXXXXXXXXXXXXXXXXXXXX............................XXXXXXXXXXXXXXXXXXXXXXXXXXXXXX............................XXXXXXXXXXXXXXXXXXXXXXXXXXXXX.............................XXXXXXXXXXXXXXXXXXXXXXXXXXXXXX............................XXXXXXXXXXXXXXXXXXXXXXXXXXXXXX............................XXXXXXXXXXXXXXXXXXXXXXXXXXXXX............................XXXXXXXXXXXXXXXXXXXXXXXXXXXXXX............................XXXXXXXXXXXXXXXXXXXXXXXXXXXXX.....XXXXX ",
"   XXXXXXXXXXXXXXXXXXXXXXXXXXXXXXXXXXXXXXXXXXXXXXXXXXXXXXXXXXXXXXXXXXXXXXXXXXXXXXXXXXXXXXXXXXXXXXXXXXXXXXXXXXXXXXXXXXXXXXXXXXXXXXXXXXXXXXXXXXXXXXXXXXXXXXXXXXXXXXXXXXXXXXXXXXXXXXXXXXXXXXXXXXXXXXXXXXXXXXXXXXXXXXXXXXXXXXXXXXXXXXXXXXXXXXXXXXXXXXXXXXXXXXXXXXXXXXXXXXXXXXXXXXXXXXXXXXXXXXXXXXXXXXXXXXXXXXXXXXXXXXXXXXXXXXXXXXXXXXXXXXXXXXXXXXXXXXXXXXXXXXXXXXXXXXXXXXXXXXXXXXXXXXXXXXXXXXXXXXXXXXXXXXXXXXXXXXXXXXXXXXXXXXXXXXXXXXXXXXXXXXXXXXXXXXXXXXXXXXXXX  ",
"       XXXXXXXXXXXXXXXXXXXXXXXXXXXXXXXXXXXXXXXXXXXXXXXXXXXXXXXXXXXXXXXXXXXXXXXXXXXXXXXXXXXXXXXXXXXXXXXXXXXXXXXXXXXXXXXXXXXXXXXXXXXXXXXXXXXXXXXXXXXXXXXXXXXXXXXXXXXXXXXXXXXXXXXXXXXXXXXXXXXXXXXXXXXXXXXXXXXXXXXXXXXXXXXXXXXXXXXXXXXXXXXXXXXXXXXXXXXXXXXXXXXXXXXXXXXXXXXXXXXXXXXXXXXXXXXXXXXXXXXXXXXXXXXXXXXXXXXXXXXXXXXXXXXXXXXXXXXXXXXXXXXXXXXXXXXXXXXXXXXXXXXXXXXXXXXXXXXXXXXXXXXXXXXXXXXXXXXXXXXXXXXXXXXXXXXXXXXXXXXXXXXXXXXXXXXXXXXXXXXXXXXXXXXXXXXXXX     "};
