/* XPM */
static char * image_name[] = {
"8 8 2 1",
" 	c None",
".	c #FFFF00000000",
"........",
"........",
"....    ",
".....   ",
".. ...  ",
"..  ... ",
"..   ...",
"..    .."};
